<?xml version="1.0" standalone="no"?>
<!DOCTYPE svg PUBLIC "-//W3C//DTD SVG 1.1//EN" "http://www.w3.org/Graphics/SVG/1.1/DTD/svg11.dtd" >
<!--
2013-9-30: Created.
-->
<svg>
<metadata>
Created by iconfont
</metadata>
<defs>

<font id="iconfont" horiz-adv-x="1024" >
  <font-face
    font-family="iconfont"
    font-weight="500"
    font-stretch="normal"
    units-per-em="1024"
    ascent="896"
    descent="-128"
  />
    <missing-glyph />
    
    <glyph glyph-name="yuyue" unicode="&#58893;" d="M883.456 469.97504V651.84256c0 85.29408-69.12512 154.42432-154.42432 154.42432h-16.67072v36.93568c0 21.28896-17.26464 38.5536-38.62016 38.5536a38.5536 38.5536 0 0 1-38.5536-38.5536v-36.93568H274.88768v36.93568c0 21.28896-17.3312 38.5536-38.62016 38.5536-21.36064 0-38.62016-17.26464-38.62016-38.5536v-36.93568H162.8672c-85.2992 0-154.42432-69.13024-154.42432-154.42432v-591.89248c0-85.29408 69.12512-154.4192 154.42432-154.4192h293.72928a38.58432 38.58432 0 0 1 49.8944 36.93568c0 19.05152-13.83424 34.8928-32.04608 38.02112a9.10336 9.10336 0 0 1-1.35168 0.59904c-11.72992 3.81952-310.2208 1.68448-310.2208 1.68448-42.57792 0-77.17376 34.60096-77.17376 77.17888v410.0608h768.19968M162.8672 729.09312h34.78016v-66.03264a38.58432 38.58432 0 0 1 38.62016-38.62016 38.6304 38.6304 0 0 1 38.62016 38.62016V729.09312h360.29952v-66.03264c0-21.36064 17.26464-38.62016 38.5536-38.62016a38.58432 38.58432 0 0 1 38.62016 38.62016V729.09312h16.67072c42.57792 0 77.24544-34.66752 77.24544-77.24544v-104.58624H85.68832V651.84256c0 42.57792 34.60096 77.25056 77.17888 77.25056zM763.81184 418.56c-142.13632 0-257.32608-115.2512-257.32608-257.32608 0-142.13632 115.18464-257.39264 257.32608-257.39264 142.13632 0 257.39264 115.2512 257.39264 257.39264 0 142.07488-115.2512 257.32608-257.39264 257.32608z m0-437.46816c-99.28192 0-180.1472 80.7936-180.1472 180.1472 0 99.29216 80.86016 180.08064 180.1472 180.08064 99.3536 0 180.1472-80.78848 180.1472-180.08064 0-99.3536-80.78848-180.1472-180.1472-180.1472zM841.05728 135.44448h-77.24544V212.6848a25.74848 25.74848 0 0 1-25.72288 25.73312 25.7536 25.7536 0 0 1-25.728-25.73312v-102.96832a25.74336 25.74336 0 0 1 25.728-25.728h102.96832a25.74848 25.74848 0 0 1 25.728 25.728 25.74848 25.74848 0 0 1-25.728 25.728zM352.06656 367.10912h-154.4192a25.75872 25.75872 0 0 1 0-51.51744h154.42432a25.74336 25.74336 0 0 1 25.72288 25.728 25.75872 25.75872 0 0 1-25.728 25.78944zM352.06656 186.96704h-154.4192a25.76384 25.76384 0 0 1-25.728-25.79968 25.74336 25.74336 0 0 1 25.728-25.72288h154.42432a25.73824 25.73824 0 0 1 25.72288 25.72288 25.76384 25.76384 0 0 1-25.728 25.79968z"  horiz-adv-x="1024" />

    
    <glyph glyph-name="dizhi" unicode="&#58968;" d="M512 710.4c-150.592 0-282.656-135.808-259.808-281.184 33.312-104.416 119.744-227.68 259.52-368.768 135.808 141.024 222.496 264.416 260.16 369.28C794.368 574.912 662.432 710.4 512 710.4z m315.04-297.44c-42.336-119.84-140.576-257.376-294.528-413.664a28.8 28.8 0 0 0-40.704-0.32v0.032c-158.88 156.544-257.376 294.432-295.168 414.912l-0.928 3.904C165.216 600.896 326.848 768 512 768c185.152 0 346.784-167.104 316.288-350.176l-1.28-4.864z m-318.464-48a115.136 115.136 0 1 1 0 230.304 115.136 115.136 0 0 1 0-230.304z m0 57.6a57.6 57.6 0 1 0 0 115.136 57.6 57.6 0 0 0 0-115.136z"  horiz-adv-x="1024" />

    
    <glyph glyph-name="jianzhu" unicode="&#58884;" d="M548.864 290.304a32.6656 32.6656 0 0 0-32.768 32.768 39.5264 39.5264 0 0 0 1.024 7.68l39.936 171.008a32.8704 32.8704 0 1 0 64-14.848l-29.184-124.416 164.864 22.528-31.232 124.416a32.9728 32.9728 0 1 0 64 15.872l39.936-159.744a32.6144 32.6144 0 0 0-24.064-39.936 8.704 8.704 0 0 0-3.584-0.512l-248.32-33.792a7.6288 7.6288 0 0 0-4.608-1.024zM588.8 461.312a31.232 31.232 0 0 0-20.992 7.68l-261.12 220.16a33.6896 33.6896 0 0 0-10.752 33.792 33.1776 33.1776 0 0 0 26.624 23.552l167.424 27.648a32.8704 32.8704 0 0 0 26.624-7.168l261.12-220.16a33.1776 33.1776 0 0 0 4.096-46.592 31.6928 31.6928 0 0 0-19.968-11.264l-167.424-27.648zM403.968 693.76L599.04 529.408l81.92 13.824-195.072 163.84zM548.864 290.304a30.72 30.72 0 0 0-22.016 8.704l-271.36 245.76a32.6144 32.6144 0 0 0-8.704 35.328L296.96 722.432a32.8704 32.8704 0 0 0 61.952-22.016L315.904 578.56l254.976-231.424a33.1264 33.1264 0 0 0 2.048-46.592 32.4608 32.4608 0 0 0-24.064-10.24z m-193.536-297.472A32.6656 32.6656 0 0 0 322.56 25.6a39.5264 39.5264 0 0 0 1.024 7.68l39.936 171.008a32.8704 32.8704 0 1 0 64-14.848l-29.184-124.416 164.864 22.528-31.232 124.416a32.9728 32.9728 0 1 0 64 15.872l39.936-159.744a34.6112 34.6112 0 0 0-4.608-26.624 33.4848 33.4848 0 0 0-23.04-14.336l-248.32-33.792a14.1824 14.1824 0 0 0-4.608-0.512zM395.264 164.352a31.232 31.232 0 0 0-20.992 7.68l-261.12 220.16a33.6896 33.6896 0 0 0-10.752 33.792 33.1264 33.1264 0 0 0 26.112 24.064l151.04 27.648a33.024 33.024 0 0 0 38.4-26.624 33.3824 33.3824 0 0 0-26.624-38.4l-82.432-15.36 196.096-165.376 152.576 25.088a32.9728 32.9728 0 0 0 10.752-65.024l-167.424-27.648zM355.328-7.168a30.72 30.72 0 0 0-22.016 8.704l-271.36 245.76a32.6144 32.6144 0 0 0-8.704 35.328L103.424 424.96a32.8704 32.8704 0 0 0 61.952-22.016L122.368 281.6l254.976-231.424a33.1264 33.1264 0 0 0 2.048-46.592 31.9488 31.9488 0 0 0-24.064-10.752zM717.824 41.472a40.96 40.96 0 0 0-40.96 40.96 20.992 20.992 0 0 0 0.512 5.632l21.504 158.208a41.2672 41.2672 0 0 0 35.328 35.328l155.648 20.992a41.216 41.216 0 0 0 45.568-30.72l36.864-147.968a43.3664 43.3664 0 0 0-5.632-32.768 41.3184 41.3184 0 0 0-28.16-17.92l-214.016-31.232c-3.072 0-4.608-0.512-6.656-0.512z m57.856 162.816l-9.728-72.704L880.64 148.48l-16.896 68.096z"  horiz-adv-x="1024" />

    
    <glyph glyph-name="dengpao1" unicode="&#58890;" d="M281.674 642.576c11.553 14.585 24.288 28.14 38.208 40.267l-68.978 69.013c-10.828 10.867-28.404 10.867-39.275 0-10.831-10.831-10.831-28.404 0-39.235l70.046-70.043zM506.013 753.531c0.268 0 0.494 0 0.802 0 9.109 0 18.109-0.571 26.955-1.487l0 93.986c0 15.327-12.432 27.757-27.76 27.757s-27.721-12.429-27.721-27.757l0-93.968c8.846 0.895 17.842 1.469 26.956 1.469 0.27 0 0.534 0 0.762 0zM730.414 642.612l69.971 70.007c10.866 10.831 10.866 28.404 0 39.235-10.794 10.867-28.405 10.867-39.277 0l-69.018-69.013c13.958-12.123 26.695-25.664 38.324-40.227zM213.494 445.775c0 13.403 1.07 26.519 2.633 39.483l-98.682 0c-15.289 0-27.722-12.432-27.722-27.757 0-15.328 12.434-27.757 27.722-27.757l96.393 0c-0.229 5.28-0.345 10.581-0.345 16.033zM894.563 485.255l-98.643 0c1.6-12.964 2.633-26.082 2.633-39.483 0-5.45-0.115-10.753-0.305-16.033l96.315 0c15.332 0 27.722 12.429 27.722 27.757s-12.39 27.757-27.722 27.757zM745.017 257.738c-11.286-16.547-23.218-30.843-34.695-43.77l50.787-50.829c10.868-10.831 28.483-10.831 39.277 0 10.866 10.867 10.866 28.404 0 39.275l-55.37 55.324zM211.627 202.415c-10.831-10.867-10.831-28.404 0-39.275 10.868-10.831 28.448-10.831 39.275 0l50.83 50.863c-11.475 12.889-23.412 27.222-34.699 43.731l-55.403-55.324zM760.039 445.775c0.037 57.556-19.138 110.785-51.438 153.414-28.33 37.442-66.806 66.802-111.379 84.036l0.229 1.222-19.026 5.586c-14.798 4.29-30.051 7.265-45.605 8.867l-2.211 0.246-0.075 0-0.079 0.019c-7.623 0.724-15.557 1.279-23.83 1.279l-1.218 0c-8.276 0-16.207-0.557-23.833-1.279l-0.115-0.019-2.286-0.246c-15.535-1.6-30.791-4.575-45.549-8.867l-18.416-5.374 0.19-1.222c-44.802-17.214-83.505-46.651-111.99-84.244-32.258-42.628-51.438-95.854-51.438-153.414 0-41.274 7.132-75.207 18.227-103.29 16.661-42.114 42.094-70.559 62.533-92.138 10.22-10.754 19.22-19.941 25.317-27.795 6.254-7.892 9.265-13.995 10.141-18.837 4.459-23.565 4.917-53.306 4.917-60.854l0-2.174c0-34.085 27.609-61.617 61.659-61.655l142.51 0c34.092 0.037 61.659 27.609 61.659 61.655l0 2.097c-0.037 7.474 0.458 37.291 4.919 60.893 0.608 3.278 2.058 7.017 4.917 11.591 4.88 7.97 14.11 17.883 25.548 29.819 17.083 17.959 38.815 40.604 56.091 72.805 17.312 32.161 29.703 73.706 29.626 127.882zM701.813 358.324c-13.614-34.336-34.053-57.575-53.763-78.391-9.841-10.411-19.487-20.095-27.911-30.812-8.311-10.562-15.745-22.65-18.606-37.481-5.377-28.94-5.607-59.978-5.638-68.862 0-1.181 0-1.828 0-2.096-0.037-10.295-8.314-18.606-18.608-18.606l-142.51 0c-5.223 0-9.761 2.059-13.194 5.45-3.391 3.434-5.412 7.934-5.412 13.154 0 0.268 0 0.953 0 2.172-0.037 8.957-0.306 39.921-5.682 68.783-1.828 9.797-5.834 18.571-10.674 26.348-8.579 13.612-19.559 24.819-30.889 36.832-17.116 17.842-35.232 37.119-49.341 63.41-14.07 26.309-24.517 59.745-24.557 107.54 0.037 47.947 15.862 91.95 42.706 127.427 26.845 35.442 64.595 62.209 108.175 75.246l5.377 1.638c10.524 2.708 21.315 4.861 32.429 6.026l0.075 0 2.06 0.229c6.519 0.627 12.847 1.03 19.103 1.066l1.105-0.115 1.106 0.076c6.212 0 12.579-0.42 19.063-1.03l-0.079 0 2.137-0.229 0.037 0c11.093-1.163 21.887-3.277 32.372-6.026l5.451-1.638c43.582-13.037 81.329-39.807 108.175-75.246 26.801-35.478 42.666-79.482 42.666-127.427 0.003-36.409-6.094-64.511-15.169-87.446zM532.782 698.893l0.079 0zM479.17 698.893l0 0c0 0 0.037 0 0.075 0l-0.075 0zM576.706 62.175l-141.369 0c-14.604 0-26.499-11.822-26.499-26.539 0-14.564 11.899-26.465 26.499-26.465l141.369 0c14.604 0 26.499 11.899 26.499 26.465 0 14.721-11.899 26.539-26.499 26.539zM576.706-4.704l-141.369 0c-14.604 0-26.499-11.857-26.499-26.464 0-14.678 11.899-26.539 26.499-26.539l141.369 0c14.604 0 26.499 11.857 26.499 26.539 0 14.605-11.899 26.464-26.499 26.464zM518.406-72.116l-72.805 0c0-0.801-0.154-1.561-0.154-2.404 0-14.643 22.498-26.499 43.297-26.499l34.546 0c20.818 0 43.277 11.857 43.277 26.499 0 0.837-0.115 1.6-0.115 2.404l-48.044 0z"  horiz-adv-x="1024" />

    
    <glyph glyph-name="lajishouyun" unicode="&#58896;" d="M715.744 271.68c42.432 0 78.528-26.368 93.28-63.52h66.976L708.576 664.64H265.76l7.744-456.48h348.992a100.352 100.352 0 0 0 93.248 63.52zM228.64 248.544h57.856v-41.088H228.64zM232.928 664.64H95.936L7.648 524.576l7.744-316.384h19.456c14.752 37.152 50.848 63.52 93.28 63.52s78.528-26.368 93.28-63.52h19.296L232.928 664.64z m-191.424-309.184v171.808l50.24 89.152h119.968l7.744-260.96H41.504zM717.504 664.64l167.424-456.48 72.608-28.544 58.848 48.352-21.152 136.928-212.928 299.744zM128 171.168m-93.088 0a93.088 93.088 0 1 1 186.176 0 93.088 93.088 0 1 1-186.176 0ZM715.776 171.168m-93.088 0a93.088 93.088 0 1 1 186.176 0 93.088 93.088 0 1 1-186.176 0Z"  horiz-adv-x="1024" />

    
    <glyph glyph-name="paoshi_wangge" unicode="&#58938;" d="M211.968 274.432l121.344 49.664-81.92-246.784-122.88-59.392zM156.16 533.504l124.416 38.4 13.824-22.528-123.392-39.424zM171.008 509.952l123.392 39.424 23.552 3.072-122.88-39.424zM204.288 584.704l122.88 36.352-46.592-49.152-124.416-38.4zM385.536 153.6l115.2 55.296-0.512-157.184L385.536-10.24zM148.48 423.936l186.368-131.584 50.688-138.752v-163.84l-59.392-2.048-25.6 193.536-69.12 96.256-19.456-3.072-83.456-256.512-65.536 25.6 4.096 41.472zM148.48 423.936l124.416 43.008 179.712-124.928-117.76-49.664zM334.848 292.352l117.76 49.664 48.128-133.12L385.536 153.6zM326.656 400.384L444.928 445.44l98.304-64.512-114.688-48.128zM389.632 482.304l116.736 41.472-61.44-78.336-118.272-45.056zM200.192 687.104l123.904 31.744 123.904 1.024-119.808-32.768zM456.704 556.032l114.688 38.4 48.64-254.976-112.128-50.176zM328.192 687.104l119.808 32.768 123.392-125.44-114.688-38.4zM507.904 289.28l112.128 50.176 105.472-72.704-107.52-54.272zM660.48 276.48l106.496 51.712 61.952-7.168-103.936-52.224zM724.992 268.8l103.936 52.224 146.432-369.664-97.28-70.144zM430.08-49.664l71.68 159.744 86.016 53.76L65.024 515.072l8.704 48.64 126.464 123.392 128.512 0.512 128.512-131.584 51.2-266.752 109.568-76.8L660.48 276.48l64.512-7.68 153.6-387.584L430.08-49.664zM326.656 400.384L428.544 332.8l-38.4 149.504-63.488-81.92m-131.584 112.64l38.4 80.384-29.696-8.704-48.128-51.2 14.848-23.552 24.576 3.072M449.536 861.696l116.224 24.576 122.88-107.52-111.616-30.208zM577.024 748.544l111.616 30.208-92.16-128.512-113.664-35.84zM449.536 861.696l127.488-113.152L482.816 614.4 357.888 727.04z"  horiz-adv-x="1024" />

    
    <glyph glyph-name="tuanduicankaoxian-" unicode="&#58948;" d="M874.666667 183.466667H390.4c-19.2 0-36.266667 12.8-42.666667 29.866666v2.133334l-100.266666 379.733333c-2.133333 8.533333 2.133333 17.066667 8.533333 25.6 6.4 6.4 14.933333 10.666667 23.466667 10.666667h640c19.2 0 36.266667-8.533333 46.933333-21.333334s17.066667-32 14.933333-51.2l-42.666666-320c-4.266667-32-32-55.466667-64-55.466666z m-486.4 44.8l2.133333-2.133334H874.666667c10.666667 0 19.2 8.533333 21.333333 17.066667l42.666667 320c0 6.4 0 12.8-4.266667 17.066667-4.266667 4.266667-8.533333 6.4-14.933333 6.4H292.266667l96-358.4zM505.6 264.533333c-10.666667 0-19.2 6.4-21.333333 17.066667l-46.933334 217.6c-2.133333 10.666667 4.266667 23.466667 17.066667 25.6 10.666667 2.133333 23.466667-4.266667 25.6-17.066667l46.933333-217.6c2.133333-10.666667-4.266667-23.466667-17.066666-25.6h-4.266667zM635.733333 262.4c-12.8 0-21.333333 8.533333-21.333333 21.333333V505.6c0 12.8 8.533333 21.333333 21.333333 21.333333s21.333333-8.533333 21.333334-21.333333v-224c0-10.666667-8.533333-19.2-21.333334-19.2zM768 264.533333h-4.266667c-10.666667 2.133333-19.2 12.8-17.066666 25.6l44.8 217.6c2.133333 10.666667 12.8 19.2 25.6 17.066667 10.666667-2.133333 19.2-12.8 17.066666-25.6L789.333333 281.6c-4.266667-10.666667-12.8-17.066667-21.333333-17.066667zM358.4-10.666667c-44.8 0-83.2 36.266667-83.2 83.2 0 44.8 36.266667 83.2 83.2 83.2s83.2-36.266667 83.2-83.2c0-44.8-36.266667-83.2-83.2-83.2z m0 123.733334c-21.333333 0-40.533333-17.066667-40.533333-40.533334s17.066667-40.533333 40.533333-40.533333 40.533333 17.066667 40.533333 40.533333-19.2 40.533333-40.533333 40.533334zM874.666667-10.666667c-44.8 0-83.2 36.266667-83.2 83.2 0 44.8 36.266667 83.2 83.2 83.2s83.2-36.266667 83.2-83.2c0-44.8-38.4-83.2-83.2-83.2z m0 123.733334c-21.333333 0-40.533333-17.066667-40.533334-40.533334s17.066667-40.533333 40.533334-40.533333 40.533333 17.066667 40.533333 40.533333-19.2 40.533333-40.533333 40.533334zM264.533333 582.4c-6.4 0-10.666667 2.133333-14.933333 6.4L96 740.266667c-8.533333 8.533333-8.533333 21.333333 0 29.866666s21.333333 8.533333 29.866667 0L277.333333 618.666667c8.533333-8.533333 8.533333-21.333333 0-29.866667-2.133333-4.266667-8.533333-6.4-12.8-6.4zM34.133333 736c-10.666667 0-21.333333 8.533333-21.333333 21.333333s8.533333 21.333333 21.333333 21.333334L106.666667 780.8c12.8 0 21.333333-8.533333 21.333333-21.333333s-8.533333-21.333333-21.333333-21.333334l-72.533334-2.133333z"  horiz-adv-x="1024" />

    
    <glyph glyph-name="jiazhengfuwu" unicode="&#58927;" d="M768 244.224a194.56 194.56 0 0 0-170.666667 91.136l29.696 17.066667A162.645333 162.645333 0 0 1 768 278.357333a162.645333 162.645333 0 0 1 141.824 74.069334l29.696-17.066667A194.56 194.56 0 0 0 768 244.224zM963.754667 418.133333A30.890667 30.890667 0 0 0 989.866667 386.048l-59.904-423.936V-42.666667a31.402667 31.402667 0 0 0-26.112-34.133333h-271.36a31.402667 31.402667 0 0 0-26.112 34.133333v4.778667L546.133333 386.048A30.890667 30.890667 0 0 0 572.245333 418.133333h391.509334m0 34.133334H572.245333A64.682667 64.682667 0 0 1 512 384l60.245333-426.666667a64.682667 64.682667 0 0 1 60.245334-68.266666h271.018666a64.682667 64.682667 0 0 1 60.245334 68.266666L1024 384a64.682667 64.682667 0 0 1-60.245333 68.266667zM136.533333 93.866667H102.4v-221.866667h34.133333V93.866667zM256 93.866667h-34.133333v-221.866667h34.133333V93.866667zM375.466667 93.866667h-34.133334v-221.866667h34.133334V93.866667zM273.066667 896h-34.133334v-529.066667h34.133334V896zM443.733333 196.266667H34.133333v-34.133334h409.6v34.133334zM477.866667-128h-34.133334V114.858667C443.733333 244.394667 351.914667 349.866667 238.933333 349.866667S34.133333 244.394667 34.133333 114.858667V-128H0V114.858667C0 263.168 107.178667 384 238.933333 384s238.933333-120.832 238.933334-269.141333z"  horiz-adv-x="1024" />

    
    <glyph glyph-name="dibudaohanglan-" unicode="&#58920;" d="M633.018182-100.07272699999999v165.236363H384C172.218182 67.49090899999999 0 239.70909099999994 0 451.490909S172.218182 835.490909 384 835.490909h256C851.781818 835.490909 1024 663.272727 1024 451.490909c0-97.745455-37.236364-193.163636-104.727273-262.981818L672.581818-58.18181800000002l-39.563636-41.890909z m46.545454 214.109091V11.636363999999958c67.490909 67.490909 200.145455 200.145455 204.8 207.127272 60.509091 62.836364 93.090909 144.290909 93.090909 232.727273 0 186.181818-151.272727 337.454545-337.454545 337.454546h-256C197.818182 788.945455 46.545455 637.672727 46.545455 451.490909s151.272727-337.454545 337.454545-337.454545H679.563636zM260.654545 460.8m-37.236363 0a37.236364 37.236364 0 1 1 74.472727 0 37.236364 37.236364 0 1 1-74.472727 0ZM512 460.8m-37.236364 0a37.236364 37.236364 0 1 1 74.472728 0 37.236364 37.236364 0 1 1-74.472728 0ZM763.345455 460.8m-37.236364 0a37.236364 37.236364 0 1 1 74.472727 0 37.236364 37.236364 0 1 1-74.472727 0Z"  horiz-adv-x="1024" />

    
    <glyph glyph-name="zhuangxiu" unicode="&#58951;" d="M887.069916 779.585752V836.257068c0 32.943082-27.081415 59.742932-60.408449 59.742932H261.868066c-33.275841 0-60.408449-26.79985-60.408448-59.742932v-57.695188h-0.63992C122.570279 775.285489 84.942982 767.1201100000001 84.968579 703.896013v-160.747907c0-51.884714 42.669866-86.926734 95.11771-86.926734h286.940133l0.511936-0.051193c24.16338 0 35.553956-19.453568 35.553955-43.36098v-126.064242H468.741407a25.52001 25.52001 0 0 1-25.647994-25.366429v-361.810774c0-14.027047 11.467367-27.43977 25.647994-27.43977h135.304687c14.180627 0 28.770804 14.436595 28.770804 28.463642V261.37852799999996a25.52001 25.52001 0 0 1-25.647994 25.366429h-37.243345v139.374578c0 51.526359-42.08114 93.479515-94.042644 94.068242-0.358355 0-0.71671 0.102387-1.075066 0.102387H190.427397c-24.137783 0-40.698913 19.453568-40.698913 43.335383v130.031746c0 23.907412 26.902237 20.810199 51.065617 20.810199h0.665517v-56.64572c0-32.968679 16.740307-62.840145 50.041744-62.840145h585.526809c33.301437 0 50.067342 29.871466 50.067342 62.840145V715.491364h22.422797c14.180627 0 26.697463 18.532083 26.697463 32.55913s-12.542432 31.535258-26.697463 31.535258h-22.448394zM568.056993-64.82709699999998h-63.300888V223.70003699999995h63.300888v-288.527134zM266.219523 668.0604920000001v154.860643c0 4.965779 4.095488 9.010074 9.086864 9.010074H813.274341c4.991376 0 9.061267-4.044294 9.061267-8.984477v-154.88624c0-4.965779-4.069891-8.984477-9.061267-8.984477H275.306387a9.035671 9.035671 0 0 0-9.086864 8.958881z"  horiz-adv-x="1024" />

    
    <glyph glyph-name="shuinichang" unicode="&#59033;" d="M351.232 419.328c7.168 0 12.8 5.632 12.8 12.8V832c0 14.336-11.776 25.6-25.6 25.6H64c-14.336 0-25.6-11.776-25.6-25.6v-580.096c0-4.096 2.048-8.192 5.632-10.752l139.776-97.28c5.12-3.584 11.264-5.12 17.408-5.12 6.144 0 12.288 1.536 17.92 5.632L358.4 241.664c3.584 2.56 5.632 6.144 5.632 10.752v73.216c0 7.168-5.632 12.8-12.8 12.8s-12.8-5.632-12.8-12.8v-66.56L204.8 165.376c-2.048-1.536-5.12-1.536-6.656 0l-134.144 93.184V685.056h189.44c7.168 0 12.8 5.632 12.8 12.8s-5.632 12.8-12.8 12.8h-189.44V832.512h274.432v-400.384c0-7.168 5.632-12.8 12.8-12.8zM248.32 636.928H152.576c-7.168 0-12.8-5.632-12.8-12.8s5.632-12.8 12.8-12.8h95.744c7.168 0 12.8 5.632 12.8 12.8s-5.632 12.8-12.8 12.8zM248.32 563.2H152.576c-7.168 0-12.8-5.632-12.8-12.8s5.632-12.8 12.8-12.8h95.744c7.168 0 12.8 5.632 12.8 12.8s-5.632 12.8-12.8 12.8zM248.32 489.472H152.576c-7.168 0-12.8-5.632-12.8-12.8s5.632-12.8 12.8-12.8h95.744c7.168 0 12.8 5.632 12.8 12.8s-5.632 12.8-12.8 12.8zM248.32 415.744H152.576c-7.168 0-12.8-5.632-12.8-12.8s5.632-12.8 12.8-12.8h95.744c7.168 0 12.8 5.632 12.8 12.8s-5.632 12.8-12.8 12.8zM248.32 342.016H152.576c-7.168 0-12.8-5.632-12.8-12.8s5.632-12.8 12.8-12.8h95.744c7.168 0 12.8 5.632 12.8 12.8s-5.632 12.8-12.8 12.8zM248.32 268.288H152.576c-7.168 0-12.8-5.632-12.8-12.8s5.632-12.8 12.8-12.8h95.744c7.168 0 12.8 5.632 12.8 12.8s-5.632 12.8-12.8 12.8zM960 547.84H480.256c-14.336 0-25.6-11.264-25.6-25.6v-62.976c0-7.168 5.632-12.8 12.8-12.8s12.8 5.632 12.8 12.8V522.24h479.744v-143.872h-369.664c-7.168 0-12.8-5.632-12.8-12.8s5.632-12.8 12.8-12.8h312.32v-416.768h-49.152v287.232c0 14.336-11.264 25.6-25.6 25.6h-70.656c-7.168 0-12.8-5.632-12.8-12.8s5.632-12.8 12.8-12.8h70.656v-287.232H542.72v241.664l128-89.088c9.728-6.656 20.992-10.24 31.744-10.24 17.92 0 35.328 8.704 46.592 24.064 17.408 25.6 11.264 60.416-14.336 78.336L318.464 470.016a11.9808 11.9808 0 0 1-17.408-3.072c-4.096-5.632-2.56-13.824 3.072-17.92l415.744-289.28c13.824-9.728 17.408-28.672 7.68-42.496a31.232 31.232 0 0 0-19.968-12.8c-8.192-1.536-16.384 0-23.04 5.12L358.4 335.872a12.4416 12.4416 0 0 1-17.408-3.072c-4.096-5.632-2.56-13.824 3.072-17.92l172.544-119.808v-259.584H364.032v208.896c0 7.168-5.632 12.8-12.8 12.8s-12.8-5.632-12.8-12.8v-208.896H64v208.896c0 7.168-5.632 12.8-12.8 12.8s-12.8-5.632-12.8-12.8v-208.896c0-14.336 11.776-25.6 25.6-25.6h838.144c14.336 0 25.6 11.776 25.6 25.6v416.768h31.744c14.336 0 25.6 11.264 25.6 25.6V522.24c0.512 13.824-10.752 25.6-25.088 25.6z"  horiz-adv-x="1024" />

    
    <glyph glyph-name="jianzhugongdi" unicode="&#59054;" d="M469.146 233.35c-29.666 0-53.801-28.489-53.801-63.858 0-35.358 24.135-63.836 53.8-63.836h407.327c29.666 0 53.801 28.478 53.801 63.836 0 35.37-24.135 63.857-53.8 63.857H469.145z m407.326-161.875H469.146c-45.282 0-82.125 44.032-82.125 98.007 0 53.986 36.843 98.007 82.125 98.007h407.326c45.282 0 82.115-44.032 82.115-97.997 0-53.985-36.833-98.017-82.125-98.017zM526.459 169.37c0-22.508-17.347-40.756-38.738-40.756-21.402 0-38.748 18.248-38.748 40.756 0 22.528 17.346 40.775 38.748 40.775 21.391 0 38.738-18.247 38.738-40.765m371.18-0.01c0-22.508-17.357-40.756-38.759-40.756s-38.748 18.248-38.748 40.756c0 22.528 17.346 40.775 38.748 40.775s38.748-18.247 38.748-40.765m-333.896-32.82h213.361v67.503h-213.36zM149.73 262.903l0.133 0.092 0.236-0.41 5.181-4.403 112.333 79.125c-3.707 6.45-7.475 12.84-11.192 19.312-5.653-3.215-11.367-6.523-16.999-9.728L108.728 457.943c-15.483-40.253-30.924-80.435-46.448-120.74l87.45-74.311M332.052 617.933c-9.82 0-17.766 8.376-17.766 18.698 0 10.332 7.946 18.688 17.766 18.688 9.81 0 17.767-8.356 17.767-18.688 0-10.322-7.957-18.698-17.767-18.698z m-214.22-30.116c-9.81 0-17.767 8.366-17.767 18.698 0 10.322 7.957 18.688 17.777 18.688 9.81 0 17.766-8.366 17.766-18.688 0-10.332-7.956-18.698-17.766-18.698z m364.318-76.063a270.51 270.51 0 0 0 30.31 32.236C458.968 589.25 405.454 634.5 351.94 679.752l-3.113 19.097-239.586-55.644c-1.792 0.266-3.584 0.533-5.386 0.82l1.157 13.475-17.275 1.618-1.075-12.493-0.266 0.041-24.269-235.571 6.881-1.044 5.776 15.022 15.636 40.663 9.994 25.979 15.77-13.415 16.312 94.976 183.06 23.675L445.43 452.956a303.176 303.176 0 0 0 36.72 58.798zM607.795 380.56h-77.394c2.591 25.211 11.561 48.282 25.62 66.56 14.03 18.228 31.673 29.737 51.774 33.25v-99.81z m272.886 102.482H671.949v78.07c0 8.602-5.448 15.575-12.595 15.575-30.536 0-59.884-7.393-87.573-21.995-26.624-14.03-50.39-34.1-70.84-59.659-20.316-25.374-36.199-54.917-47.32-87.787-11.468-33.854-17.243-69.96-17.243-106.834 0-8.612 5.816-15.82 12.963-15.82h431.33V483.04z"  horiz-adv-x="1024" />

    
    <glyph glyph-name="shuiniche" unicode="&#59028;" d="M625.02 289.12H456.75l152.42 103.56 47.37-86.26zM155.5 243.86c-19.86 0-35.94 8.03-35.94 17.98V431.57c0 9.93 16.09 17.98 35.94 17.98 19.85 0 35.94-8.06 35.94-17.98v-169.73c0-9.95-16.09-17.98-35.94-17.98zM606.91 526.86c-15.83 35.18-37.55 55.24-38.47 56.06-2.19 2-4.82 3.42-7.66 4.16-11.14 2.82-273.76 69.54-370.55 69.54-12.56 0-41.97 0-49.48-20.46l-55.6-151.54c-8.01-21.75 14.9-42.95 54.42-70.09 28.36-19.49 68.75-43.71 120.07-72.01 86.92-47.9 176.65-91.74 177.54-92.16 2.48-1.21 5.16-1.82 7.9-1.82h0.63c1.24 0.05 30.78 1.29 65.62 17.85 32.1 15.3 75.31 47.03 98.95 111.46 23.64 64.41 11.22 116.6-3.37 149.01zM568.44 582.92c-2.19 2-4.82 3.42-7.66 4.16-1.42 0.34-6.98 1.76-15.75 3.95L422.62 257.55c9.08-4.5 14.35-7.08 14.56-7.19 2.48-1.21 5.16-1.82 7.9-1.82h0.63c0.47 0.03 5.03 0.21 12.4 1.34l118.91 324c-4.89 5.64-8.24 8.72-8.58 9.04zM350.61 634.66L246.16 350.02c4.4-2.48 8.9-4.98 13.48-7.5 6.13-3.37 12.24-6.71 18.38-10.03l108.25 294.95c-11.81 2.48-23.76 4.9-35.66 7.22zM640.77 297.78H137.52c-9.93 0-17.96-8.06-17.96-17.98v-71.88c0-9.93 8.03-17.98 17.96-17.98h503.25c9.93 0 17.98 8.06 17.98 17.98V279.8c0 9.93-8.05 17.98-17.98 17.98zM640.8 207.92l0.18 323.7 186.39 0.16 66.96-133.47 34.02-68.06-0.32-122.33zM894.33 398.31l-66.96 133.47-186.39-0.16-0.08-133.31zM910.39 406.37l-71.94 143.39-215.43-0.18-0.21-359.65h323.15l0.37 144.53-35.94 71.91z m-0.26-180.5H658.78l0.16 287.79 157.35 0.13 61.95-123.51 32.12-64.25-0.23-100.16zM748.62 207.92m-89.87 0a89.87 89.87 0 1 1 179.74 0 89.87 89.87 0 1 1-179.74 0ZM389.16 297.78c-29.41 0-55.5-14.11-71.91-35.94-16.38 21.83-42.47 35.94-71.88 35.94-49.63 0-89.87-40.23-89.87-89.87s40.23-89.87 89.87-89.87c29.41 0 55.5 14.11 71.88 35.94 16.4-21.83 42.5-35.94 71.91-35.94 49.63 0 89.87 40.23 89.87 89.87s-40.24 89.87-89.87 89.87zM730.63 207.92c0-9.93 8.06-17.98 17.98-17.98 9.93 0 17.96 8.06 17.96 17.98s-8.03 17.96-17.96 17.96c-9.92-0.01-17.98-8.03-17.98-17.96zM227.38 207.92c0-9.93 8.06-17.98 17.98-17.98s17.98 8.06 17.98 17.98-8.06 17.96-17.98 17.96c-9.92-0.01-17.98-8.03-17.98-17.96zM371.17 207.92c0-9.93 8.06-17.98 17.98-17.98s17.96 8.06 17.96 17.98-8.03 17.96-17.96 17.96c-9.92-0.01-17.98-8.03-17.98-17.96zM694.46 513.72h35.94v-115.41h-35.94z"  horiz-adv-x="1024" />

    
    <glyph glyph-name="banyunfei" unicode="&#59003;" d="M963 445.579c0 102.332 0.001 204.665-0.002 306.997 0 10.547-5.798 16.42-16.227 16.42-185.165 0.004-370.33 0.004-555.495 0-10.455 0-16.271-5.857-16.273-16.375-0.007-38.166-0.07-76.333 0.096-114.498 0.018-4.075-0.854-5.262-5.108-5.232-29.832 0.205-59.666 0.056-89.498 0.157-5.359 0.018-9.645-1.778-13.391-5.525C201.344 561.76 135.559 496.026 69.774 430.29c-3.212-3.21-4.818-6.933-4.815-11.588 0.057-93.499 0.035-186.998 0.054-280.497 0.002-9.099 6.216-15.175 15.436-15.197 13.333-0.031 26.672-0.235 39.996 0.119 4.459 0.119 5.744-1.364 6.4-5.517 13.166-83.302 94.784-137.13 176.053-114.521 57.8 16.08 92.108 55.33 103.195 114.418 0.855 4.554 2.334 5.625 6.846 5.613 62.499-0.177 124.998-0.12 187.498-0.12 9.16 0 9.16 0 10.757-8.864 18.394-102.096 138.658-150.385 222.358-89.13 31.426 22.999 50.458 53.919 56.554 92.49 0.726 4.596 2.297 5.723 6.831 5.632 16.327-0.325 32.683 0.35 48.99-0.305 9.983-0.401 17.282 7.198 17.253 17.26-0.294 101.831-0.18 203.664-0.18 305.496zM355.501 117.875c-10.29-41.2-46.977-69.99-89.364-69.873-42.026 0.116-78.673 29.167-88.7 70.092-1.009 4.12-0.159 5.014 3.98 4.99 28.315-0.161 56.632-0.085 84.948-0.085 28.316 0 56.633-0.08 84.948 0.086 4.284 0.026 5.286-0.812 4.188-5.21z m14.105 55.03a81357.27 81357.27 0 0 1-249.476 0c-4.063-0.006-5.243 0.837-5.234 5.097 0.145 74.16 0.12 148.32 0.048 222.479-0.003 2.876 0.765 4.915 2.833 6.979a121443.738 121443.738 0 0 1 172.872 172.868c2.091 2.096 4.189 2.735 7.026 2.724 24.164-0.093 48.329-0.144 72.492 0.039 3.89 0.03 4.933-0.94 4.925-4.893-0.129-66.825-0.092-133.652-0.092-200.479 0-66.494-0.056-132.988 0.122-199.481 0.012-4.575-1.296-5.34-5.516-5.333z m469.833-55.165c-10.288-41.023-46.812-69.742-88.949-69.739-42.127 0.003-78.658 28.743-88.939 69.758-1.027 4.096-0.554 5.366 4.011 5.336 28.315-0.189 56.632-0.095 84.948-0.095 28.316 0 56.633-0.097 84.948 0.097 4.624 0.032 4.995-1.317 3.981-5.357z m68.308 55.143c-159.164 0.14-318.329 0.14-477.493 0-4.539-0.004-5.353 1.241-5.351 5.495 0.112 178.331 0.113 356.662 0.001 534.992-0.003 4.414 0.915 5.748 5.598 5.744 158.997-0.138 317.995-0.138 476.992 0 4.68 0.004 5.608-1.324 5.602-5.742-0.129-89.165-0.096-178.33-0.096-267.496s-0.032-178.331 0.098-267.496c0.006-4.252-0.808-5.501-5.351-5.497z"  horiz-adv-x="1024" />

    
    <glyph glyph-name="gongren" unicode="&#58960;" d="M471.2 329.6c-9.6 0-17.6 8-17.6 17.6s8 17.6 17.6 17.6h81.6c9.6 0 17.6-8 17.6-17.6s-8-17.6-17.6-17.6H471.2zM186.4 534.4c-14.4 0-27.2 12.8-27.2 27.2 0 14.4 12.8 27.2 27.2 27.2h24.8c8.8 0 16 6.4 16 15.2 7.2 99.2 67.2 189.6 156.8 234.4 4 2.4 8.8 3.2 12 3.2 14.4 0 27.2-12.8 27.2-27.2v-56c0-8.8 7.2-16 16-16s16 7.2 16 16V840.8c0 13.6 10.4 25.6 23.2 27.2 10.4 1.6 21.6 1.6 32 1.6 12 0 24.8-0.8 35.2-1.6 13.6-1.6 23.2-12.8 23.2-27.2v-81.6c0-8.8 7.2-16 16-16s16 7.2 16 16v55.2c0 14.4 12.8 27.2 27.2 27.2 3.2 0 8-0.8 12.8-3.2C732 791.2 790.4 704 797.6 604c0.8-8.8 7.2-15.2 16-15.2h24.8c14.4 0 27.2-12.8 27.2-27.2 0-14.4-12.8-27.2-27.2-27.2H186.4z m567.2 48c-2.4 6.4-3.2 12-4 18.4-4.8 69.6-41.6 134.4-98.4 176v-17.6c0-35.2-28.8-64-64-64s-64 28.8-64 64V821.6H504V760c0-35.2-28.8-64-64-64s-64 28.8-64 64v18.4c-59.2-41.6-96-107.2-101.6-177.6-0.8-6.4-1.6-12-4-18.4h483.2zM83.2-126.4c-20.8 0-40 8.8-52.8 24-11.2 13.6-16 31.2-12 48 32 164 181.6 298.4 376 336.8-74.4 48-120 136-120 234.4v5.6h476.8v-5.6c0-97.6-45.6-186.4-120.8-234.4 194.4-39.2 344-173.6 376-336.8 3.2-16.8-0.8-34.4-12-48-12.8-15.2-32-24-52.8-24H83.2zM512 246.4c-109.6 0-215.2-32-297.6-91.2-79.2-56.8-132-134.4-148.8-218.4-0.8-4 0.8-7.2 2.4-8 4-4.8 8.8-7.2 15.2-7.2h859.2c6.4 0 12 2.4 15.2 6.4 0.8 0.8 3.2 4 1.6 8-16 84.8-68.8 162.4-148.8 219.2C727.2 214.4 621.6 246.4 512 246.4zM324.8 474.4c17.6-104 95.2-179.2 186.4-179.2S680 370.4 697.6 474.4H324.8z"  horiz-adv-x="1024" />

    
    <glyph glyph-name="feiji" unicode="&#59130;" d="M950.208 687.36c16 48.128 12.8 89.888-12.8 118.784l-3.2 3.2c-28.8 25.696-70.368 28.896-118.368 12.832-41.6-12.832-80-38.528-115.168-70.624l-83.2-83.488L240 757.984c-16 3.2-35.2 0-48-12.864L115.2 668.064c-9.6-9.6-16-25.696-12.8-44.96 3.2-16.032 12.8-28.896 25.6-35.296l265.568-144.512-112-112.352-95.968 25.664c-6.4 3.2-12.8 3.2-16 3.2-12.8 0-25.6-6.4-35.2-16.032l-54.4-57.792C67.2 276.352 64 260.288 64 247.45600000000002c0-16.064 9.6-28.896 19.2-35.328l147.168-109.152 108.8-147.712c9.6-12.832 22.4-19.264 35.2-19.264h3.168c12.8 0 25.6 6.4 35.2 16.064l57.6 57.792c12.8 12.832 19.2 32.096 12.8 48.16l-25.6 96.32 111.968 112.384 143.968-266.496c9.6-16.064 22.4-22.496 32-25.696 6.4-3.2 9.6-3.2 12.8-3.2 12.8 0 22.4 3.2 32 9.6l76.768 57.824c16 12.832 22.4 32.096 19.2 51.36l-89.6 398.144 83.2 83.488c32 32.096 57.6 70.624 70.4 115.584z m-224.896-180.8l97.376-425.92-58.432-41.92-181.76 329.12-201.28-200.064 35.68-125.824L377.952 0l-103.872 138.752L128 248.44799999999998l42.208 41.92 126.592-35.456 201.28 200.032-334.4 180.704 58.464 58.08 412.256-96.8 110.4 106.464c25.92 25.824 58.4 45.184 90.88 58.08 35.712 12.896 48.672 3.232 55.168 0 3.264-6.432 9.76-19.36 0-54.848a197.76 197.76 0 0 0-58.432-90.336l-107.104-109.696z"  horiz-adv-x="1024" />

    
    <glyph glyph-name="shoutuiche" unicode="&#59436;" d="M607.1 174.5l-233.7-55.6L84 482.4l701.2-3.7zM84 482.4l289.4-363.5 177.7 42.3-385.5 320.6zM206.5 78.1m-126.1 0a126.1 126.1 0 1 1 252.2 0 126.1 126.1 0 1 1-252.2 0ZM258.4-25.8c-69.7 0-126.1 56.5-126.1 126.1 0 41.8 20.4 78.9 51.7 101.8C125.1 191.5 80.3 140 80.3 78c0-69.7 56.5-126.1 126.1-126.1 27.8 0 53.5 9 74.4 24.3-7.2-1.3-14.7-2-22.4-2zM944.7 574.2H833.4c-4.9 0-9.5-2.6-12-6.9l-43.8-74.7h-88.2c-0.6 1-32.1 48.7-63.4 123.5-41.7 99.8-86.2 214.1-174.7 214.1-85.2 0-127-108.9-163.8-204.9-21.5-56-41.7-111.8-66.2-132.6H84.1c-11.4 0-18.1-9.9-11-18.9L349 127.1l-10.5-2.6c-19.2 54.5-71.2 93.6-132.1 93.6-20.1 0-39.5-4.2-57.7-12.4-7-3.2-10.1-11.4-6.9-18.4 3.2-7 11.4-10.1 18.4-6.9 14.5 6.6 30.1 9.9 46.2 9.9 47.9 0 88.8-30.1 104.9-72.4l-42-10.2c-11.1 23.6-35.2 39.9-62.9 39.9-38.4 0-69.6-31.2-69.6-69.6 0-38.4 31.2-69.6 69.6-69.6S276 39.6 276 78c0 0.9 0 1.7-0.1 2.6l42 10.2c0.5-4.2 0.8-8.5 0.8-12.8 0-61.9-50.3-112.2-112.2-112.2S94.2 16.2 94.2 78.1c0 26.4 9.4 52.1 26.4 72.3 5 5.9 4.2 14.6-1.7 19.6-5.9 5-14.7 4.2-19.6-1.7-21.3-25.2-33-57.2-33-90.2 0-77.2 62.8-140 140-140s140 62.8 140 140c0 6.6-0.5 13.1-1.4 19.4l129.4 31.2 102.9-169.4c0.1-0.2 0.2-0.3 0.3-0.5 8.1-12.2 20.8-18.9 34.3-18.9 5.3 0 10.7 1 15.9 3.1 18.8 7.5 29.2 26 25.7 45.9l-31.9 182.9L719 338c3.9 6.6 1.7 15.2-5 19-6.6 3.9-15.1 1.7-19-5l-97.1-165.5-219.3-52.2-268.3 333.9h651.4L730 411.6c-3.6-6.1-1.9-14.2 3.9-18.3 6.6-4.7 16-2.7 20.1 4.3l87.4 148.9h103.3c7.7 0 13.9 6.2 13.9 13.9 0 7.6-6.2 13.8-13.9 13.8zM313.5 615.4c33.6 87.7 71.7 187 137.8 187 69.7 0 111.8-104.5 148.9-196.7 18.2-45.3 34.5-86.2 53.1-113.1H258c20.8 29.5 37.8 76.5 55.5 122.8zM235.2 70.7c-3.3-12.9-14.9-22.4-28.8-22.4-16.4 0-29.7 13.3-29.7 29.7s13.3 29.7 29.7 29.7c8.8 0 16.7-3.9 22.2-10l12.7 3.1c-7.5 11.4-20.3 18.9-34.9 18.9-23 0-41.7-18.7-41.7-41.7s18.7-41.7 41.7-41.7c21.6 0 39.4 16.5 41.5 37.5l-12.7-3.1zM206.5 107.7c-16.4 0-29.7-13.3-29.7-29.7s13.3-29.7 29.7-29.7c13.9 0 25.5 9.5 28.8 22.4l-25.5-6.2c-7.5-1.8-15 2.8-16.8 10.2-1.8 7.5 2.8 15 10.2 16.8l25.5 6.2c-5.5 6.2-13.4 10-22.2 10zM343.7 545.5m-29.7 0a29.7 29.7 0 1 1 59.4 0 29.7 29.7 0 1 1-59.4 0ZM558.9 545.5m-29.7 0a29.7 29.7 0 1 1 59.4 0 29.7 29.7 0 1 1-59.4 0ZM451.3 545.5m-29.7 0a29.7 29.7 0 1 1 59.4 0 29.7 29.7 0 1 1-59.4 0ZM369.7 649.4m-29.7 0a29.7 29.7 0 1 1 59.4 0 29.7 29.7 0 1 1-59.4 0ZM532.9 649.4m-29.7 0a29.7 29.7 0 1 1 59.4 0 29.7 29.7 0 1 1-59.4 0ZM451.3 649.4m-29.7 0a29.7 29.7 0 1 1 59.4 0 29.7 29.7 0 1 1-59.4 0ZM451.3 749.5m-29.7 0a29.7 29.7 0 1 1 59.4 0 29.7 29.7 0 1 1-59.4 0ZM626.2-15.8c1.8-10.3-6.1-14.3-8.6-15.3-2.4-1-10.8-3.5-16.6 5l-98 161.5 93 22.1 30.2-173.3z"  horiz-adv-x="1024" />

    
    <glyph glyph-name="Energy-" unicode="&#58929;" d="M127.2 516c-4-1.6-8-1.6-12.8-0.8-12.8 2.4-21.6 15.2-19.2 28 16.8 88 62.4 170.4 128 231.2 9.6 8.8 24.8 8.8 33.6-1.6 8.8-9.6 8.8-24.8-1.6-33.6-58.4-54.4-98.4-127.2-113.6-204.8-0.8-8.8-7.2-15.2-14.4-18.4zM120.8 418.4c-2.4-0.8-4-0.8-6.4-1.6-11.2-0.8-20.8 6.4-24 16-0.8 2.4-0.8 4-1.6 6.4-0.8 13.6 9.6 24.8 22.4 25.6 11.2 0.8 20.8-5.6 24-16 0.8-2.4 0.8-4 1.6-6.4v-0.8c0-10.4-6.4-20-16-23.2zM228 572c-5.6-1.6-12-1.6-17.6 0.8-12 5.6-17.6 20-12 32 18.4 40.8 44 77.6 76.8 108.8 9.6 8.8 24.8 8.8 33.6-0.8 8.8-9.6 8.8-24.8-0.8-33.6-28-26.4-50.4-58.4-65.6-93.6-3.2-7.2-8.8-11.2-14.4-13.6zM165.6 640.8c-4 0-8 0.8-12 3.2-11.2 6.4-15.2 21.6-8.8 32.8 44.8 77.6 115.2 140 196.8 176 12 5.6 26.4 0 32-12 5.6-12 0-26.4-12-32-72.8-32-135.2-87.2-175.2-156-4-8-12-12-20.8-12zM127.2 550.4c-2.4 0-4.8 0-6.4 0.8-10.4 3.2-17.6 12.8-17.6 23.2 0 2.4 0 4.8 0.8 6.4 4 12.8 16.8 20 29.6 16.8 10.4-3.2 17.6-12.8 17.6-22.4 0-2.4 0-4-0.8-6.4v-0.8c-3.2-10.4-12.8-17.6-23.2-17.6zM280 660c-5.6 0-12 2.4-16.8 6.4-9.6 8.8-10.4 24-0.8 33.6 31.2 32.8 67.2 58.4 108 76.8 12 5.6 26.4 0 32-12 5.6-12 0-26.4-12-32-35.2-16-66.4-38.4-92.8-66.4-4.8-4-11.2-6.4-17.6-6.4zM592-120H432L478.4 832c0.8 17.6 16 32 33.6 32s32.8-14.4 33.6-32L592-120zM476 295.2s0.8 0 0 0c16 8 34.4-3.2 35.2-20.8 4.8-108.8 8.8-227.2 10.4-260 0.8-16.8 15.2-30.4 32-30.4 18.4 0 32.8 15.2 32 33.6l-2.4 59.2L545.6 832c-0.8 17.6-16 32-33.6 32s-32.8-14.4-33.6-32l-27.2-549.6 24.8 12.8zM432-120h-0.8c-13.6 0.8-23.2 12-23.2 24.8l16 376.8c0.8 13.6 12 23.2 24.8 23.2 13.6-0.8 23.2-12 23.2-24.8l-16-376.8c-0.8-12.8-11.2-23.2-24-23.2zM592-120c-12.8 0-23.2 10.4-24 23.2l-21.6 470.4c-0.8 13.6 9.6 24.8 23.2 24.8 13.6 0.8 24.8-9.6 24.8-23.2l21.6-470.4c0.8-13.6-9.6-24.8-23.2-24.8H592zM846.4 310.4L632 449.6c-42.4 28-69.6 74.4-72.8 125.6L545.6 830.4c-0.8 16.8-13.6 31.2-30.4 32.8-19.2 2.4-36-12.8-37.6-32L464 574.4c-2.4-50.4-29.6-96.8-72-124.8L178.4 308c-14.4-9.6-20-27.2-13.6-43.2 8-17.6 29.6-24.8 46.4-16L440 366.4c45.6 23.2 99.2 23.2 144.8 0.8l229.6-116c16.8-8.8 38.4-1.6 46.4 16.8 6.4 15.2 0 33.6-14.4 42.4zM440 342.4c-8.8 0-16.8 4.8-21.6 12.8-6.4 12-1.6 26.4 10.4 32 52 26.4 114.4 27.2 167.2 0.8 12-5.6 16.8-20.8 10.4-32-5.6-12-20.8-16.8-32-10.4-38.4 19.2-84.8 19.2-123.2 0-4-2.4-8-3.2-11.2-3.2zM632 425.6c-4.8 0-8.8 1.6-12.8 4-48.8 32-80 85.6-83.2 144-0.8 13.6 9.6 24.8 22.4 25.6 13.6 0.8 24.8-9.6 25.6-22.4 2.4-43.2 25.6-83.2 61.6-106.4 11.2-7.2 14.4-22.4 7.2-33.6-4.8-7.2-12.8-11.2-20.8-11.2zM464 550.4h-1.6c-13.6 0.8-23.2 12-22.4 25.6l14.4 257.6c0.8 16 8 30.4 20 40.8C486.4 884.8 502.4 889.6 517.6 888c28-3.2 50.4-27.2 52-56L584 576.8c0.8-13.6-9.6-24.8-22.4-25.6-13.6-0.8-24.8 9.6-25.6 22.4l-14.4 256c0 5.6-4 10.4-8.8 10.4-3.2 0-6.4-0.8-7.2-2.4-0.8-0.8-3.2-3.2-3.2-7.2L488 572.8c-0.8-12.8-11.2-22.4-24-22.4zM829.6 223.2c-8.8 0-17.6 2.4-26.4 6.4L559.2 352.8c-12 5.6-16.8 20.8-10.4 32 5.6 12 20.8 16.8 32 10.4L824.8 272c3.2-1.6 6.4-0.8 8-0.8 1.6 0.8 4 2.4 5.6 5.6 1.6 4 0 9.6-4.8 12.8L619.2 429.6c-11.2 7.2-14.4 22.4-7.2 33.6 7.2 11.2 22.4 14.4 33.6 7.2l214.4-139.2c24-16 33.6-47.2 22.4-72.8-6.4-14.4-18.4-25.6-33.6-31.2-6.4-2.4-12.8-4-19.2-4zM196 221.6c-6.4 0-12.8 0.8-19.2 3.2-15.2 5.6-27.2 16-33.6 31.2-11.2 25.6-2.4 56.8 22.4 72.8l214.4 141.6c11.2 7.2 25.6 4 33.6-7.2 7.2-11.2 4-25.6-7.2-33.6L191.2 288c-4.8-3.2-6.4-8.8-4.8-12.8 1.6-3.2 4-4.8 5.6-5.6 1.6-0.8 4.8-0.8 8 0.8l243.2 124.8c12 6.4 26.4 1.6 32-10.4 6.4-12 1.6-26.4-10.4-32L222.4 228c-8.8-4-17.6-6.4-26.4-6.4zM512 464m-32 0a32 32 0 1 1 64 0 32 32 0 1 1-64 0Z"  horiz-adv-x="1024" />

    
    <glyph glyph-name="dengpao" unicode="&#58899;" d="M512 800c43.2 0 85.1-8.5 124.5-25.1 38.1-16.1 72.3-39.2 101.7-68.6 29.4-29.4 52.5-63.6 68.6-101.7C823.5 565.1 832 523.2 832 480c0-46.4-9.7-91-28.8-132.8-18.5-40.4-44.7-76-77.9-105.7-30.7-27.6-108.5-119.2-137.9-208.5H436.6c-29.3 89.3-107.1 180.9-137.9 208.5-33.3 29.8-59.5 65.3-77.9 105.7C201.7 389 192 433.6 192 480c0 43.2 8.5 85.1 25.1 124.5 16.1 38.1 39.2 72.3 68.6 101.7 29.4 29.4 63.6 52.5 101.7 68.6C426.9 791.5 468.8 800 512 800m0 64c-212.1 0-384-171.9-384-384 0-113.7 49.4-215.9 128-286.2C294.3 159.5 384 43 384-31h256c0 74 89.7 190.5 128 224.8 78.6 70.3 128 172.5 128 286.2 0 212.1-171.9 384-384 384zM384-64h256v-40H384zM384-20h40v-84h-40zM600-20h40v-84h-40zM532 384h-40v-384h40V384zM588.4 488.7l-90.5-90.6 28.2-28.2 90.6 90.5-28.3 28.3zM435.6 488.7l-28.3-28.3 90.6-90.5 28.2 28.2-90.5 90.6z"  horiz-adv-x="1024" />

    
    <glyph glyph-name="tuiche" unicode="&#58978;" d="M192 64a192 192 0 1 0 90.88 361.28l-30.08-56.64a128 128 0 1 1-121.28-224 128 128 0 0 1 173.12 52.16l56.64-30.4a192 192 0 0 0-113.92-93.12A195.2 195.2 0 0 0 192 64zM182.08 286.656l800.192 254.592 19.392-60.992-800.16-254.592zM392 394.88L121.6 704H800v-192h-64V640H262.72l177.28-202.88-48-42.24zM547.712 233.792l49.92 39.68 126.976-159.744-49.92-39.68z"  horiz-adv-x="1024" />

    
    <glyph glyph-name="dianhua" unicode="&#58892;" d="M220-51.4c-16 0-25.6 1.6-28.2 2-6.8 1.2-39.4 7.2-56.2 22.8-6.6 5.6-46.4 40-72.2 82.6-11.4 18.8-19.8 51 4.2 99 16.4 32.8 40.6 58.8 50.2 68.4 59.6 59.6 126 81.4 165.4 54.4 11-7.6 38.8-36.8 54.8-54 2.8-2.6 10.6-6 14.8-6.2 5.4 0.6 69 8.8 182 120.2 111.6 113.4 119.8 176.8 120.2 182-0.4 4-3.8 12.2-6.4 15-51 51-51 51-52.2 52.4l-0.4 0.4c-37.6 47.2 23.4 131 51.4 165 28.4 34.4 53.8 56 99.2 64.6 32.8 6.2 75.6-8.6 114.4-39.6 37.2-29.8 59.4-65.8 61.2-99.2 3.8-24.4 21.6-211.2-242-474.8l-3.2-3.2c-0.8-0.8-1.8-1.6-2.6-2.6-0.8-0.8-1.6-1.8-2.6-2.6l-3-3C450-26.6 284.2-51.4 220-51.4z m-17.8 57c2.8-0.4 45.2-6.4 116.2 16.6 68.4 22.2 177.8 76.6 310.8 209.6l2.4 2.4c1 1.2 2.2 2.2 3.4 3.4l3.2 3.2c0.8 0.8 1.8 1.6 2.6 2.6 135.2 135.2 189.4 246.2 211 315.6 22 70.6 15.2 110.8 15 111.2l-0.4 2.2v2.2c-0.6 16.8-16.4 40-40.4 59.2-27.4 22-55.4 30.8-69 28.4-29.4-5.6-44.2-18.6-66.4-45.2-39.4-47.8-52.2-84.8-50.4-94.6l48-48c13-13 22.6-35.8 23-54.4 0-8.6-3-86.2-136.4-221.8l-0.4-0.4c-134-132-211.6-136.4-221.4-136.4h-0.4c-18.6 0.2-41.4 9.8-54.4 23l-0.8 0.8c-17.8 19.2-40.4 42.2-46 46.4-8.2 5.4-46.6-0.6-94-48-6-6-26.8-27.8-39.8-53.8-5.6-11.4-14-32.2-6.4-44.8C133.8 47.8 171.6 16.2 172 16l1.6-1.4c4.4-3 18.6-7.6 27-8.6l1.6-0.4z m-28 8.4z m178.8 203.4s0.2 0 0 0c0.2 0 0.2 0 0 0z m302 302v0z"  horiz-adv-x="1024" />

    
    <glyph glyph-name="wode-copy" unicode="&#58967;" d="M513.1 300.6c165.5 0 299.6 133.1 299.6 297.3 0 164.2-134.2 297.3-299.6 297.3S213.5 762.1 213.5 597.9C213.5 433.7 347.6 300.6 513.1 300.6zM513.1 846.2c137.5 0 249.3-111.4 249.3-248.3 0-136.9-111.9-248.3-249.3-248.3S263.7 461 263.7 597.9C263.7 734.8 375.6 846.2 513.1 846.2zM513.1 278.6c-219.3 0-397.7-181.9-397.7-405.2l51.1-0.2c0 193.9 155.5 352.1 346.6 352.1S859.7 79 859.7-126l51.1 0C910.8 105 732.4 278.6 513.1 278.6zM633.6 451.7l-15.2 20c-63.7-46.2-154.6-46.4-218.5-0.5l-15.2-20.1c36.3-26.1 79.2-39.8 124.1-39.8C554.1 411.3 597.2 425.2 633.6 451.7z"  horiz-adv-x="1024" />

    
    <glyph glyph-name="huiyikaihuitaolun" unicode="&#58961;" d="M538 312.6l13 0c7.2 0 13-5.8 13-13l0-208c0-7.2-5.8-13-13-13l-13 0c-7.2 0-13 5.8-13 13l0 208C525 306.8 530.8 312.6 538 312.6zM473 312.6l13 0c7.2 0 13-5.8 13-13l0-208c0-7.2-5.8-13-13-13l-13 0c-7.2 0-13 5.8-13 13l0 208C460 306.8 465.8 312.6 473 312.6zM174 689.6c-14.4 0-26-11.6-26-26 0-14.3 11.7-26 26-26 14.4 0 26 11.7 26 26C200 677.9 188.4 689.6 174 689.6zM174 598.5c-35.9 0-65 29.1-65 65 0 35.9 29.1 65 65 65 35.9 0 65-29.1 65-65C239 627.7 209.9 598.5 174 598.5zM356 208.6l-143 78 0 221c0 0-3.7 26-39 26-31.9 0-39-26-39-26l0-195c0 0-2.2-20.2 13-26l195-91 0-156 13 0L356 208.6zM395 195.6l0-156c0 0-2.9-41.7-52-39-37.6 2.1-39 39-39 39l0 130-169 78c0 0-38.5 14.5-39 52 0 1.8 0 221 0 221s17.9 51.3 78 52c62.3 0.7 78-52 78-52l0-208 117-65C369 247.6 394.1 238.7 395 195.6zM512 728.7c-14.4 0-26-11.6-26-25.9 0-14.3 11.7-25.9 26-25.9s26 11.6 26 25.9C538 717.1 526.4 728.7 512 728.7zM512 638c-35.9 0-65 29-65 64.8 0 35.7 29.1 64.7 65 64.7 35.9 0 65-29 65-64.7C577 667 547.9 638 512 638zM564 547.4c0 0-2.3 26.7-52 25.9-53.6-0.8-52-25.9-52-25.9l0-156.8 104 0L564 547.4zM707 351.5 317 351.5c0 0-13 2.2-13 17.9 0 19.6 13 21.2 13 21.2l104 0 0 169.8c0 0-0.5 51.3 91 51.8 83.9 0.5 91-51.8 91-51.8l0-169.8 104 0c0 0 13-5 13-19.1C720 358.3 707 351.5 707 351.5zM850 689.7c-14.4 0-26-11.6-26-25.9 0-14.3 11.6-25.9 26-25.9 14.3 0 26 11.6 26 25.9C876 678.1 864.3 689.7 850 689.7zM850 599.1c-35.9 0-65 29-65 64.7s29.1 64.7 65 64.7c35.9 0 65-29 65-64.7S885.9 599.1 850 599.1zM889 314.1 889 508.4c0 0-7.1 25.9-38.9 25.9-35.4 0-39-25.9-39-25.9l0-220.2-143-77.7 0-168.4 13 0L681.1 197.5l195 90.6C891.1 294 889 314.1 889 314.1zM928 301.2c-0.5-37.4-39-51.8-39-51.8l-169-77.7 0-129.5c0 0-1.4-36.8-39-38.8-49.1-2.7-52 38.8-52 38.8L629 197.5c0.9 43 26 51.8 26 51.8l117 64.7L772 521.3c0 0 15.7 52.5 78 51.8 60.1-0.7 78-51.8 78-51.8S928 302.9 928 301.2z"  horiz-adv-x="1024" />

    
    <glyph glyph-name="shouye1" unicode="&#58966;" d="M524.151058 778.413733c-7.124056-5.839457-16.865341-5.887489-24.013924-0.14614l414.68321-333.106587c11.860822-9.527697 29.198307-7.636056 38.726004 4.224766 9.527697 11.860822 7.636056 29.198307-4.224766 38.726004L534.638371 821.218363c-13.164838 10.57418-32.38681 10.479138-45.411641-0.197238L74.466874 481.054148c-11.76578-9.6442-13.485733-27.00008-3.841533-38.76586 9.6442-11.76578 27.00008-13.485733 38.76586-3.841533L524.151058 778.413733zM949.321581 336.610874l-414.68321 333.106587c-13.164838 10.57418-32.38681 10.479138-45.411641-0.197238L74.466874 329.553246c-11.76578-9.6442-13.485733-27.00008-3.841533-38.76586 9.6442-11.76578 27.00008-13.485733 38.76586-3.841533l58.288287 47.777469 0-315.732311c0-45.630339 37.014228-82.607776 82.660918-82.607776L422.476647-63.616766l27.545804 0 0 27.545804 0 188.356727c0 7.615617 6.163417 13.783122 13.756551 13.783122l96.443018 0c7.5962 0 13.756551-6.164439 13.756551-13.783122l0-188.356727L573.978571-63.616766 601.523353-63.616766l172.13624 0c45.671218 0 82.660918 36.969261 82.660918 82.607776L856.320511 340.652711l58.499832-46.991585c11.860822-9.527697 29.198307-7.636056 38.726004 4.224766C963.073022 309.745693 961.182403 327.0842 949.321581 336.610874zM801.228902 18.99101c0-15.205685-12.317637-27.516168-27.569309-27.516168L629.069158-8.525158 629.069158 152.285764c0 38.035162-30.816064 68.873709-68.847138 68.873709l-96.443018 0c-38.026986 0-68.847138-30.840591-68.847138-68.873709l0-160.810922L250.340407-8.525158c-15.232255 0-27.569309 12.32479-27.569309 27.516168L222.771098 379.880495l289.404679 237.216447 289.054148-232.190467L801.229924 18.99101z"  horiz-adv-x="1024" />

    
    <glyph glyph-name="shengchangqunzhongzhitongchejiaoliupingtai" unicode="&#58895;" d="M425.04967977 599.77465094m-33.84785102 0a33.84785101 33.84785101 0 1 1 67.69570065 0 33.84785101 33.84785101 0 1 1-67.69570065 0ZM553.6789185 599.77465094m-33.84785102 0a33.84785101 33.84785101 0 1 1 67.69570203 0 33.84785101 33.84785101 0 1 1-67.69570203 0ZM682.30815724 599.77465094m-33.84784963 0a33.84785101 33.84785101 0 1 1 67.69570064 0 33.84785101 33.84785101 0 1 1-67.69570064 0ZM252.98113021 227.56679774999998c-54.12693457 0-98.15876695 44.03183238-98.15876696 98.16617378 0 54.12693457 44.03923921 98.16617379 98.15876696 98.1661738 54.12693457 0 98.16617379-44.03923921 98.16617379-98.1661738s-44.03923921-98.16617379-98.16617379-98.16617378z m0 162.48449659c-35.46247509 0-64.31091595-28.8558477-64.31091594-64.31832281s28.84844224-64.31832278 64.31091594-64.31832276 64.31832278 28.8558477 64.31832278 64.31832276-28.8558477 64.31832278-64.31832278 64.31832281zM421.96115587 122.12000402000001a155.21128208 155.21128208 0 0 1-29.11507709-17.39794399 155.52235652 155.52235652 0 0 1-18.21266218 28.63365245c-28.5373678 35.74392221-72.47291417 58.65973236-121.65228639 58.65973236-85.84911093 0-155.70752036-69.82878211-155.70752036-155.70011353 0-3.48847617 0.1703502-6.96954688 0.40736046-10.42839711h-33.95154248a221.89969523 221.89969523 0 0 0-0.30366761 10.42839711c0 104.52097862 85.02698592 189.55536999 189.56277682 189.55537138 61.46680779 0 116.171453-29.41874469 150.83402219-74.87263187a190.57006569 190.57006569 0 0 0 18.13859664-28.8780668zM486.53129981 171.71414079c-54.13434141 0-98.16617379 44.03923921-98.1661724 98.16617378 0 54.13434141 44.03183238 98.16617379 98.1661724 98.1661738 54.12693457 0 98.16617379-44.03183238 98.1661738-98.1661738 0-54.12693457-44.03923921-98.16617379-98.1661738-98.16617378z m0 162.48449659c-35.46247509 0-64.31832278-28.8558477-64.31832277-64.31832281s28.8558477-64.31832278 64.31832277-64.31832276 64.31832278 28.8558477 64.31832416 64.31832276-28.8558477 64.31832278-64.31832416 64.31832281zM676.10148348-19.53732563999995c0-3.48847617-0.14072425-6.96954688-0.30366761-10.42839712h-33.95154111c0.2370089 3.45885024 0.40735909 6.9473264 0.40735909 10.42839712 0 53.27518362-26.87830412 100.36591398-67.79939349 128.42926259a152.8189726 152.8189726 0 0 1-30.32974752 16.20549267 154.44840895 154.44840895 0 0 1-57.57097253 11.0727651 154.98908685 154.98908685 0 0 1-93.70744153-31.44813469c-37.67702755-28.43367632-62.01489111-73.55426857-62.01489111-124.25938567 0-3.48847617 0.1703502-6.96954688 0.37032632-10.42839712h-33.92191655a180.95638676 180.95638676 0 0 0-0.30366761 10.42839712c0 62.7259192 30.60378919 118.40081914 77.65007995 152.90044495a188.29625996 188.29625996 0 0 0 111.91269686 36.66233187c29.27061362 0 56.99326323-6.66587926 81.77551867-18.55336256a192.22172253 192.22172253 0 0 0 30.64082196-18.48670246c46.7500286-34.52184494 77.14643621-90.04120834 77.14643621-152.5227118zM695.12886383 201.88835179c-54.12693457 0-98.16617379 44.03183238-98.16617241 98.16617379 0 54.12693457 44.03923921 98.15876695 98.16617241 98.15876695 54.13434141 0 98.16617379-44.03183238 98.1661738-98.15876695s-44.03183238-98.16617379-98.1661738-98.16617379z m0 162.47708974c-35.45506827 0-64.31832278-28.8558477-64.31832278-64.31091595 0-35.46247509 28.8558477-64.31832278 64.31832278-64.3183228 35.46988053 0 64.31832278 28.8558477 64.31832416 64.3183228 0 35.45506827-28.84844224 64.31091595-64.31832416 64.31091595zM884.68423521 10.651699000000008c0-3.51810211-0.11109831-7.00657966-0.31107444-10.45802305h-33.91450972c0.19997613 3.4514434 0.37773315 6.9473264 0.37773316 10.45802305 0 85.84911093-69.83618895 155.70752036-155.70752038 155.707519a154.64838645 154.64838645 0 0 1-96.1590029-33.38123867 152.69306199 152.69306199 0 0 1-24.51562057-24.09344783 152.8189726 152.8189726 0 0 1-30.32974752 16.20549128 191.59216682 191.59216682 0 0 0 24.20454612 26.37466039c33.61084211 30.26308881 78.08706636 48.74238582 126.79982487 48.74238583 104.52838406 0.00740683 189.55536999-85.02698592 189.55537138-189.55537zM702.06137795 726.13749216H386.1135408c-6.26592564 0-12.39112839-0.67399393-18.27932089-2.02198317-37.91403646-8.36938117-66.34771278-42.21723218-66.34771278-82.59764367v-83.50124103c0-46.68336989 37.98069517-84.62703366 84.62703367-84.62703365H459.29748305l111.2016688-83.06425465-10.15435407 28.84103542-19.05700767 54.22321923h160.78099468c40.38781831 0 74.26529525 28.43367632 82.59023683 66.34771276 1.35539469 5.88819248 2.02938999 12.01339525 2.02938999 18.27932089V641.5104585c0 46.6463385-37.97328833 84.62703366-84.62703366 84.62703366z m0-218.90745598H386.1135408a50.8310277 50.8310277 0 0 0-50.77177583 50.77177583V641.5104585a50.80140175 50.80140175 0 0 0 50.77177583 50.77177583h315.94783715a50.83843453 50.83843453 0 0 0 50.77177581-50.77177583v-83.50124104c0-7.24358855-1.51833943-14.07981664-4.25875473-20.3087095a50.77918265 50.77918265 0 0 0-46.51302108-30.47047178zM624.65571373 483.46988052l-8.36197434 23.76015566h-51.89756983l45.29094244-33.847851h18.50892432l-3.54032259 10.08769534z m141.72398699 306.97852759H450.42445674c-40.38781831 0-74.23566932-28.43367632-82.59764228-66.34030595a81.55332204 81.55332204 0 0 1-2.02938999-18.28672771v-17.79789488a50.31997713 50.31997713 0 0 0 20.3087095 4.25875476h13.5391415v13.53914012c0 7.21396261 1.51833943 14.07981664 4.26616157 20.30871089a50.78658948 50.78658948 0 0 0 46.5130197 30.46306632h315.94783854a50.83843453 50.83843453 0 0 0 50.77177582-50.77177721v-83.50123965a50.77918265 50.77918265 0 0 0-30.46306633-46.50561426 50.32738396 50.32738396 0 0 0-20.30870949-4.26616156h-13.53914152v-13.53914152c0-7.24358855-1.51833943-14.07981664-4.25875473-20.3087095h17.79789625c6.26592564 0 12.39112839 0.68140077 18.2793195 2.02939 37.91403646 8.32494158 66.34771278 42.20982534 66.34771278 82.59023684V705.82137445c0 46.6463385-37.97328833 84.62703366-84.61962684 84.62703366z"  horiz-adv-x="1024" />

    
    <glyph glyph-name="huiyizanzhuyantao" unicode="&#58957;" d="M420.8 692a91.2 91.2 0 0 0 182.4 0v-48a91.2 91.2 0 1 0-182.4 0v48z m91.2 52.8a52.8 52.8 0 0 1-52.8-52.8v-48a52.8 52.8 0 0 1 105.6 0v48a52.8 52.8 0 0 1-52.8 52.8zM120.8 528a79.2 79.2 0 1 0 158.4 0v-52a79.2 79.2 0 1 0-158.4 0V528z m79.2 40.8A40.8 40.8 0 0 1 159.2 528v-52a40.8 40.8 0 1 1 81.6 0V528a40.8 40.8 0 0 1-40.8 40.8zM222.624 316.8a63.424 63.424 0 0 1-63.424-63.424v-87.84c0-28.896 5.632-57.52 16.576-84.272l-35.552-14.528a260.96 260.96 0 0 0-19.424 98.8v87.84a101.824 101.824 0 0 0 101.824 101.824h12.688c18.512 0 35.568-10.032 44.544-26.224l31.776-57.2a12.8 12.8 0 0 1 11.2-6.576h58.48c26.56 0 43.712-28.064 31.616-51.712l-2.912-5.696a123.04 123.04 0 0 0-109.52-66.992 93.36 93.36 0 0 0-80.544 46.144l-12.512 21.344a19.2 19.2 0 0 0 33.12 19.424l12.512-21.344a54.96 54.96 0 0 1 47.424-27.168 84.64 84.64 0 0 1 75.344 46.08l0.768 1.52h-53.776a51.2 51.2 0 0 0-44.752 26.336l-31.792 57.2a12.56 12.56 0 0 1-10.976 6.464h-12.688zM903.2 528a79.2 79.2 0 0 1-158.4 0v-52a79.2 79.2 0 0 1 158.4 0V528z m-79.2 40.8A40.8 40.8 0 0 0 864.8 528v-52a40.8 40.8 0 0 0-81.6 0V528a40.8 40.8 0 0 0 40.8 40.8zM801.376 316.8a63.424 63.424 0 0 0 63.424-63.424v-87.84a222.56 222.56 0 0 0-16.576-84.272l35.552-14.528a260.96 260.96 0 0 1 19.424 98.8v87.84a101.824 101.824 0 0 1-101.824 101.824h-12.688a50.976 50.976 0 0 1-44.544-26.224l-31.776-57.2a12.8 12.8 0 0 0-11.2-6.576H642.72c-26.56 0-43.728-28.064-31.632-51.712l2.912-5.696a123.04 123.04 0 0 1 109.52-66.992 93.36 93.36 0 0 1 80.544 46.144l12.512 21.344a19.2 19.2 0 1 1-33.12 19.424l-12.512-21.344a54.96 54.96 0 0 0-47.424-27.168 84.64 84.64 0 0 0-75.344 46.08l-0.768 1.52h53.776a51.2 51.2 0 0 1 44.768 26.336l31.776 57.2a12.56 12.56 0 0 0 10.976 6.464h12.688zM380.8 460a131.2 131.2 0 0 0 262.4 0v-56a19.2 19.2 0 0 0-19.2-19.2H400a19.2 19.2 0 0 0-19.2 19.2v56z m131.2 92.8a92.8 92.8 0 0 1-92.8-92.8v-36.8h185.6v36.8a92.8 92.8 0 0 1-92.8 92.8zM295.552 383.552a51.2 51.2 0 0 0 49.888 39.648h329.12a51.2 51.2 0 0 0 49.888-39.648 19.2 19.2 0 1 0-37.408-8.656 12.8 12.8 0 0 1-12.48 9.904H345.44a12.8 12.8 0 0 1-12.48-9.92 19.2 19.2 0 1 0-37.408 8.672z m-41.216-279.12a19.2 19.2 0 0 0 14.368-23.04l-8.912-38.512a12.8 12.8 0 0 1 12.48-15.68h475.472a12.8 12.8 0 0 1 12.48 15.68l-8.928 38.512a19.2 19.2 0 0 0 37.408 8.672l8.912-38.512a51.2 51.2 0 0 0-49.872-62.752H272.256a51.2 51.2 0 0 0-49.872 62.752l8.912 38.512a19.2 19.2 0 0 0 23.04 14.368z"  horiz-adv-x="1024" />

    


  </font>
</defs>
</svg>
